<svg width="174" height="142" viewBox="0 0 174 142" fill="none" xmlns="http://www.w3.org/2000/svg">
<path d="M134.927 41.2656C135.305 37.9679 134.776 35.0367 133.619 32.583C132.668 30.5671 132.502 28.2121 133.106 25.9922C133.149 25.8366 133.194 25.6815 133.244 25.5274L135.175 19.563C136.271 16.1803 134.734 12.5236 131.624 11.4143C128.398 10.2632 124.817 12.2144 123.688 15.7009L122.629 18.9728C121.671 21.9303 119.413 24.2559 116.599 25.168C113.852 26.0586 111.223 27.8538 109.064 30.6976C101.575 40.5598 92.1945 48.832 81.4342 54.841C70.6737 60.85 59.0533 64.3055 47.371 65.1484C40.0646 65.6757 35.1027 71.0622 33.5167 77.2622C31.9242 83.4877 33.7353 90.5336 39.9967 94.3052C47.6005 98.8856 56.2426 101.73 65.4359 102.442C89.5784 104.313 113.172 91.1377 125.98 68.6328C130.862 60.0544 133.842 50.7095 134.927 41.2656Z" fill="#C4C4C4"/>
<path d="M133.106 25.9922C133.149 25.8366 133.194 25.6815 133.244 25.5274L134.257 22.3989L135.175 19.563C136.271 16.1803 134.734 12.5236 131.624 11.4143C128.398 10.2632 124.817 12.2144 123.688 15.7009L122.709 18.7256L122.629 18.9728C121.671 21.9303 119.413 24.2559 116.599 25.168C113.852 26.0586 111.223 27.8538 109.064 30.6977C101.575 40.5598 92.1945 48.832 81.4342 54.8411C70.6737 60.85 59.0533 64.3055 47.371 65.1485C40.0646 65.6757 35.1027 71.0622 33.5167 77.2622C52.5041 85.6334 74.3248 84.7605 93.4121 74.8647C112.372 65.0348 126.811 47.2464 133.106 25.9922Z" fill="#D6D6D3"/>
<path d="M135.774 18.0956L136.692 15.2598C137.787 11.8771 136.251 8.22038 133.141 7.11103C129.914 5.96002 126.334 7.91113 125.205 11.3977L124.225 14.4224C127.68 16.6764 131.654 17.9407 135.774 18.0956Z" fill="#CCCCCC"/>
<path d="M62.1494 95.2719C61.5164 97.1454 56.6357 98.2052 51.3215 96.4097C46.0074 94.6142 42.2721 90.6434 42.9051 88.7699C43.5381 86.8964 48.3592 86.8331 53.6734 88.6286C58.9876 90.424 62.7824 93.3984 62.1494 95.2719Z" fill="white" fill-opacity="0.6"/>
<path d="M108.757 38.037C107.793 36.9797 109.025 33.3436 112.275 30.3796C115.526 27.4156 119.564 26.246 120.528 27.3033C121.492 28.3606 119.639 31.6205 116.388 34.5845C113.138 37.5485 109.721 39.0942 108.757 38.037Z" fill="white" fill-opacity="0.45"/>
</svg>
