<svg width="756" height="42" viewBox="0 0 756 42" fill="none" xmlns="http://www.w3.org/2000/svg">
<path d="M736.735 4.35265C743.724 4.38688 747.219 4.404 749.814 5.91948C751.514 6.9123 752.923 8.3352 753.899 10.0452C755.389 12.6553 755.372 16.1498 755.338 23.1386C755.304 30.1274 755.287 33.6218 753.771 36.2173C752.778 37.9176 751.356 39.3266 749.646 40.3027C747.035 41.7927 743.541 41.7756 736.552 41.7414L18.6887 38.2253C11.6999 38.1911 8.20546 38.174 5.61001 36.6585C3.90965 35.6657 2.50065 34.2428 1.52452 32.5328C0.0345352 29.9226 0.0516505 26.4282 0.0858811 19.4394C0.120112 12.4506 0.137227 8.95619 1.6527 6.36073C2.64554 4.66041 4.06841 3.25138 5.77842 2.27527C8.38859 0.785274 11.883 0.802389 18.8718 0.83662L736.735 4.35265Z" fill="#E2F2F5"/>
<g clip-path="url(#clip0_0_2345)">
<path d="M127.181 1.36706C130.706 1.38433 132.469 1.39296 133.558 2.49341C134.648 3.59387 134.639 5.35639 134.622 8.88143L134.512 31.3147C134.495 34.8397 134.486 36.6022 133.386 37.692C132.285 38.7817 130.523 38.7731 126.998 38.7558L118.676 38.715C111.688 38.6808 108.193 38.6637 105.598 37.1482C103.897 36.1554 102.488 34.7325 101.512 33.0225C100.022 30.4123 100.039 26.9179 100.074 19.9291C100.108 12.9403 100.125 9.44588 101.64 6.85041C102.633 5.15009 104.056 3.74106 105.766 2.76495C108.376 1.27496 111.871 1.29207 118.86 1.3263L127.181 1.36706Z" fill="#C4C4C4" fill-opacity="0.74"/>
<path d="M107.756 1.27228L124.508 38.7439L99.1055 38.6195L83.5633 1.15379L107.756 1.27228Z" fill="#FFCF25"/>
<path d="M59.3747 1.11859L76.1264 38.5903L50.7241 38.4658L35.182 1.0001L59.3747 1.11859Z" fill="#FFCF25"/>
<path d="M10.3747 1.11859L27.1264 38.5903L1.7241 38.4658L-13.818 1.0001L10.3747 1.11859Z" fill="#FFCF25"/>
<path d="M131.366 1.61789C132.151 1.62174 132.862 2.08474 133.182 2.80162L148.142 36.2645C148.735 37.5913 147.76 39.0878 146.306 39.0807L125.334 38.978C124.529 38.974 123.805 38.4879 123.496 37.7443L109.617 4.28679C109.069 2.96591 110.044 1.51346 111.474 1.52046L131.366 1.61789Z" fill="#FCE492"/>
<path d="M82.085 1.11228C82.8702 1.11612 83.5806 1.57913 83.901 2.296L98.8607 35.7588C99.4538 37.0857 98.4784 38.5822 97.025 38.5751L76.0526 38.4724C75.2476 38.4684 74.5235 37.9823 74.215 37.2387L60.3357 3.78117C59.7877 2.4603 60.7628 1.00784 62.1928 1.01485L82.085 1.11228Z" fill="#FCE492"/>
<path d="M33.085 1.11228C33.8702 1.11612 34.5806 1.57913 34.901 2.296L49.8607 35.7588C50.4538 37.0857 49.4784 38.5822 48.025 38.5751L27.0526 38.4724C26.2476 38.4684 25.5235 37.9823 25.215 37.2387L11.3357 3.78117C10.7877 2.4603 11.7628 1.00784 13.1928 1.01485L33.085 1.11228Z" fill="#FCE492"/>
</g>
<defs>
<clipPath id="clip0_0_2345">
<path d="M257.421 2.005L257.238 39.3937L18.6887 38.2253C11.6999 38.1911 8.20549 38.174 5.61004 36.6585C3.90971 35.6657 2.50068 34.2428 1.52458 32.5328C0.0345807 29.9226 0.051696 26.4282 0.0859266 19.4394C0.120157 12.4506 0.137273 8.95619 1.65276 6.36072C2.64557 4.6604 4.06847 3.25137 5.77845 2.27526C8.38862 0.785267 11.883 0.802383 18.8718 0.836613L257.421 2.005Z" fill="white"/>
</clipPath>
</defs>
</svg>
