<svg width="756" height="42" viewBox="0 0 756 42" fill="none" xmlns="http://www.w3.org/2000/svg">
<path d="M736.735 4.35277C743.724 4.387 747.218 4.40412 749.814 5.91961C751.514 6.91242 752.923 8.33532 753.899 10.0453C755.389 12.6555 755.372 16.1499 755.338 23.1387C755.303 30.1275 755.286 33.6219 753.771 36.2174C752.778 37.9177 751.355 39.3267 749.645 40.3029C747.035 41.7928 743.541 41.7757 736.552 41.7415L18.6882 38.2255C11.6994 38.1912 8.20497 38.1741 5.60952 36.6586C3.90916 35.6658 2.50016 34.2429 1.52403 32.533C0.034047 29.9228 0.0511623 26.4284 0.0853929 19.4395C0.119623 12.4507 0.136739 8.95631 1.65222 6.36085C2.64505 4.66053 4.06793 3.2515 5.77793 2.27539C8.3881 0.785396 11.8825 0.802511 18.8713 0.836742L736.735 4.35277Z" fill="#E2F2F5"/>
<g clip-path="url(#clip0_0_455)">
<path d="M146.663 1.46264C150.188 1.47991 151.95 1.48854 153.04 2.58899C154.13 3.68945 154.121 5.45197 154.104 8.97701L153.994 31.4102C153.977 34.9353 153.968 36.6978 152.868 37.7875C151.767 38.8773 150.005 38.8686 146.48 38.8514L-427.437 36.0404C-434.426 36.0061 -437.92 35.989 -440.516 34.4735C-442.216 33.4807 -443.625 32.0578 -444.601 30.3479C-446.091 27.7377 -446.074 24.2433 -446.04 17.2544C-446.006 10.2656 -445.989 6.77122 -444.473 4.17576C-443.48 2.47544 -442.057 1.06641 -440.347 0.090295C-437.737 -1.3997 -434.243 -1.38258 -427.254 -1.34835L146.663 1.46264Z" fill="#C4C4C4" fill-opacity="0.74"/>
<path d="M2.06472 0.754733C3.5327 0.761923 4.86064 1.62749 5.45976 2.96766L18.8612 32.945C19.9701 35.4255 18.1466 38.2231 15.4295 38.2098L-1.69124 38.126C-3.19609 38.1186 -4.54985 37.2097 -5.12648 35.8197L-17.5602 5.84715C-18.5845 3.37783 -16.7617 0.662523 -14.0883 0.675617L2.06472 0.754733Z" fill="#C4C4C4"/>
<path d="M46.9309 0.973971C48.3989 0.981161 49.7269 1.84673 50.326 3.1869L63.7274 33.1642C64.8363 35.6448 63.0128 38.4424 60.2957 38.4291L43.175 38.3452C41.6701 38.3378 40.3164 37.429 39.7397 36.039L27.306 6.06639C26.2817 3.59707 28.1046 0.881761 30.7779 0.894855L46.9309 0.973971Z" fill="#C4C4C4"/>
<path d="M91.7981 1.19406C93.2661 1.20125 94.594 2.06682 95.1932 3.40699L108.595 33.3843C109.704 35.8649 107.88 38.6625 105.163 38.6491L88.0422 38.5653C86.5373 38.5579 85.1835 37.6491 84.6069 36.2591L72.1732 6.28648C71.1489 3.81716 72.9717 1.10185 75.6451 1.11495L91.7981 1.19406Z" fill="#C4C4C4"/>
<path d="M136.664 1.41367C138.132 1.42086 139.46 2.28643 140.059 3.6266L153.46 33.6039C154.569 36.0845 152.746 38.8821 150.029 38.8687L132.908 38.7849C131.403 38.7775 130.049 37.8687 129.473 36.4787L117.039 6.50608C116.015 4.03676 117.837 1.32146 120.511 1.33455L136.664 1.41367Z" fill="#C4C4C4"/>
</g>
<defs>
<clipPath id="clip0_0_455">
<path d="M154.141 1.49927L153.957 38.888L18.6887 38.2255C11.6999 38.1912 8.20548 38.1741 5.61002 36.6586C3.9097 35.6658 2.50066 34.2429 1.52456 32.5329C0.0345641 29.9228 0.0516794 26.4283 0.0859099 19.4395C0.120141 12.4507 0.137256 8.95631 1.65275 6.36084C2.64555 4.66052 4.06846 3.25149 5.77843 2.27538C8.3886 0.785387 11.883 0.802503 18.8718 0.836733L154.141 1.49927Z" fill="white"/>
</clipPath>
</defs>
</svg>
