<svg width="354" height="416" viewBox="0 0 354 416" fill="none" xmlns="http://www.w3.org/2000/svg">
<g clip-path="url(#clip0_0_2244)" filter="url(#filter0_dd_0_2244)">
<rect width="262" height="334.468" transform="translate(22.5632 65.432) rotate(-8.95584)" fill="#FF896F"/>
<rect x="22.5632" y="65.432" width="262" height="334.468" transform="rotate(-8.95584 22.5632 65.432)" fill="#FFD5CC"/>
<g filter="url(#filter1_d_0_2244)">
<path fill-rule="evenodd" clip-rule="evenodd" d="M281.369 24.6457L22.5632 65.432L74.6309 395.822L333.437 355.036L281.369 24.6457ZM60.2964 73.5935C46.6112 75.7502 37.2655 88.5927 39.4222 102.278L79.3408 355.577C81.4975 369.262 94.3399 378.608 108.025 376.451L295.705 346.874C309.391 344.717 318.736 331.875 316.579 318.19L276.661 64.8904C274.504 51.2052 261.662 41.8595 247.977 44.0162L60.2964 73.5935Z" fill="white"/>
</g>
<g filter="url(#filter2_d_0_2244)">
<path d="M236.339 191.129C240.366 213.303 234.327 248.354 207.671 266.462C200.971 271.013 196.428 268.337 187.766 270.133C180.027 271.738 178.051 274.868 170.204 273.38C137.62 267.197 118.827 237.008 114.513 213.256C108.873 182.202 131.774 161.719 170.745 176.421C199.928 150.55 230.699 160.075 236.339 191.129Z" fill="#FF542F"/>
<path fill-rule="evenodd" clip-rule="evenodd" d="M169.632 170.335C150.473 163.821 134.055 165.164 122.761 173.345C110.758 182.039 106.169 197.261 109.248 214.212C113.806 239.311 133.72 271.906 169.208 278.639C174.111 279.569 177.483 279.052 180.688 278.006C181.788 277.647 182.68 277.31 183.518 276.994C185.126 276.388 186.539 275.855 188.854 275.375C191.606 274.804 193.648 274.776 195.97 274.743C196.818 274.731 197.703 274.719 198.674 274.679C202.341 274.53 206.234 273.91 210.68 270.89C239.693 251.181 245.863 213.601 241.607 190.172C238.485 172.984 228.131 160.872 213.677 157.237C200.154 153.836 184.407 158.199 169.632 170.335ZM207.672 266.462C234.328 248.354 240.368 213.303 236.34 191.129C230.7 160.076 199.929 150.55 170.747 176.422C131.775 161.719 108.875 182.202 114.515 213.256C118.829 237.008 137.622 267.197 170.206 273.38C175.3 274.346 177.92 273.366 181.249 272.12C183.047 271.447 185.053 270.696 187.767 270.134C191.061 269.45 193.759 269.414 196.207 269.381C200.196 269.327 203.52 269.282 207.672 266.462Z" fill="white"/>
<path fill-rule="evenodd" clip-rule="evenodd" d="M193.688 254.202C220.344 236.094 224.032 201.414 220.005 179.239C218.825 172.746 216.547 167.193 213.414 162.709C224.941 166.05 233.603 176.052 236.341 191.128C240.369 213.303 234.329 248.353 207.673 266.461C203.521 269.281 200.197 269.326 196.208 269.38C193.76 269.413 191.062 269.45 187.768 270.133C185.054 270.696 183.048 271.446 181.25 272.119C177.921 273.365 175.301 274.345 170.207 273.379C158.289 271.118 148.216 265.645 140.022 258.45C143.606 259.929 147.435 261.086 151.518 261.861C156.773 262.858 160.449 261.617 164.629 260.207C166.691 259.511 168.875 258.774 171.432 258.244C174.641 257.578 177.609 257.476 180.413 257.379C185.177 257.215 189.471 257.066 193.688 254.202Z" fill="#ED4A27"/>
<path d="M217.869 188.043C217.915 190.673 215.821 192.843 213.191 192.889C210.562 192.936 208.392 190.842 208.346 188.212C208.299 185.582 210.393 183.413 213.023 183.366C215.652 183.32 217.822 185.414 217.869 188.043Z" fill="#C53622"/>
<path d="M232.746 199.656C232.793 202.286 230.699 204.455 228.069 204.502C225.439 204.549 223.27 202.454 223.223 199.825C223.177 197.195 225.271 195.025 227.9 194.979C230.53 194.932 232.7 197.026 232.746 199.656Z" fill="#C53622"/>
<path d="M229.667 181.881C229.702 183.853 228.132 185.48 226.159 185.515C224.187 185.55 222.56 183.979 222.525 182.007C222.49 180.035 224.061 178.408 226.033 178.373C228.005 178.338 229.632 179.908 229.667 181.881Z" fill="#C53622"/>
<path d="M230.698 216.746C230.745 219.376 228.651 221.546 226.021 221.592C223.391 221.639 221.222 219.545 221.175 216.915C221.129 214.285 223.223 212.116 225.853 212.069C228.482 212.023 230.652 214.117 230.698 216.746Z" fill="#C53622"/>
<path d="M215.82 205.134C215.867 207.763 213.773 209.933 211.143 209.979C208.514 210.026 206.344 207.932 206.297 205.302C206.251 202.673 208.345 200.503 210.975 200.456C213.604 200.41 215.774 202.504 215.82 205.134Z" fill="#C53622"/>
<path d="M225.746 235.805C225.792 238.434 223.698 240.604 221.068 240.65C218.439 240.697 216.269 238.603 216.222 235.973C216.176 233.343 218.27 231.174 220.9 231.127C223.529 231.081 225.699 233.175 225.746 235.805Z" fill="#C53622"/>
<path d="M214.047 223.033C214.094 225.663 212 227.833 209.37 227.879C206.74 227.926 204.571 225.832 204.524 223.202C204.477 220.572 206.571 218.403 209.201 218.356C211.831 218.31 214 220.404 214.047 223.033Z" fill="#C53622"/>
<path d="M218.066 247.716C218.101 249.688 216.53 251.315 214.558 251.35C212.585 251.385 210.958 249.815 210.923 247.842C210.888 245.87 212.459 244.243 214.431 244.208C216.404 244.173 218.031 245.744 218.066 247.716Z" fill="#C53622"/>
<path d="M189.547 124.11C189.547 124.11 198.169 144.835 194.515 157.434C190.111 172.619 170.222 176.669 170.222 176.669C170.222 176.669 161.552 161.095 167.301 145.459C171.724 133.431 189.547 124.11 189.547 124.11Z" fill="#7CD623"/>
<path fill-rule="evenodd" clip-rule="evenodd" d="M194.49 122.054L189.547 124.11L187.066 119.367C188.397 118.671 189.958 118.566 191.369 119.077C192.781 119.588 193.913 120.668 194.49 122.054ZM184.892 126.888C187.627 125.114 189.547 124.11 189.547 124.11C189.547 124.11 190.371 126.09 191.401 129.198C193.704 136.145 197.04 148.729 194.515 157.434C190.111 172.62 170.222 176.669 170.222 176.669C170.222 176.669 161.553 161.095 167.302 145.459C170.273 137.379 179.292 130.52 184.892 126.888ZM170.222 176.669C165.545 179.273 165.544 179.271 165.543 179.269L165.536 179.257L165.524 179.235L165.491 179.175C165.465 179.127 165.431 179.063 165.39 178.985C165.308 178.829 165.197 178.614 165.063 178.344C164.796 177.803 164.435 177.039 164.029 176.082C163.22 174.174 162.216 171.467 161.41 168.215C159.813 161.77 158.903 152.79 162.277 143.612C165.042 136.094 171.662 129.979 176.829 126.023C179.519 123.965 182.048 122.318 183.905 121.185C184.836 120.617 185.606 120.173 186.153 119.866C186.426 119.713 186.644 119.593 186.799 119.509C186.876 119.468 186.938 119.435 186.983 119.411L187.037 119.382L187.062 119.369L187.066 119.367C187.067 119.366 187.066 119.367 189.547 124.11C194.49 122.054 194.489 122.053 194.49 122.054L194.494 122.065L194.502 122.083L194.526 122.143L194.61 122.349C194.681 122.525 194.78 122.776 194.904 123.095C195.15 123.732 195.492 124.644 195.888 125.772C196.678 128.023 197.694 131.167 198.593 134.742C200.317 141.599 201.912 151.15 199.656 158.926C196.867 168.542 189.297 174.276 183.213 177.482C180.105 179.12 177.175 180.213 175.026 180.899C173.946 181.244 173.048 181.49 172.404 181.654C172.082 181.736 171.822 181.797 171.634 181.84C171.539 181.861 171.463 181.878 171.405 181.891L171.333 181.906L171.308 181.911L171.298 181.913L171.294 181.914C171.292 181.914 171.29 181.915 170.222 176.669ZM165.545 179.273L170.222 176.669L171.29 181.915C169.004 182.38 166.68 181.311 165.545 179.273Z" fill="white"/>
<path d="M190.985 158.073C194.528 148.437 188.783 130.88 188.783 130.88C176.506 148.445 175.481 165.973 175.607 172.224C175.607 172.224 187.442 167.709 190.985 158.073Z" fill="#6FC21C"/>
<path d="M138.94 157.6C144.215 158.014 163.329 169.698 169.461 177.883C169.973 178.566 171.822 177.079 171.385 176.48C167.35 168.399 155.592 149.678 147.728 144.717C138.594 145.96 138.352 155.732 138.94 157.6Z" fill="#943D31"/>
<path fill-rule="evenodd" clip-rule="evenodd" d="M138.522 162.937C136.344 162.766 134.489 161.29 133.834 159.207C133.396 157.816 133.338 156.086 133.44 154.605C133.554 152.961 133.909 150.965 134.716 148.942C136.404 144.706 140.145 140.346 147.006 139.412C148.253 139.243 149.519 139.518 150.584 140.189C153.199 141.839 155.809 144.392 158.192 147.098C160.634 149.871 163.09 153.097 165.375 156.354C169.848 162.731 173.875 169.529 176.058 173.856C177.583 176.469 176.388 178.994 176.006 179.674C175.435 180.688 174.667 181.427 174.034 181.912C173.413 182.388 172.44 182.988 171.194 183.263C169.999 183.527 167.122 183.689 165.177 181.093C162.713 177.804 157.087 173.261 150.981 169.328C148.017 167.419 145.128 165.775 142.727 164.605C141.525 164.019 140.504 163.581 139.698 163.29C138.969 163.027 138.606 162.955 138.531 162.94C138.515 162.937 138.512 162.936 138.522 162.937ZM171.385 176.48C171.38 176.471 171.376 176.461 171.371 176.452C170.835 175.38 170.164 174.122 169.385 172.735C168.395 170.973 167.232 169.003 165.949 166.94C160.615 158.363 153.221 148.182 147.728 144.717C138.594 145.96 138.352 155.732 138.94 157.6C142.743 157.898 153.739 164.054 161.877 170.534C163.6 171.905 165.194 173.291 166.565 174.639C167.585 175.642 168.482 176.623 169.216 177.563C169.3 177.67 169.382 177.777 169.461 177.883C169.973 178.566 171.822 177.079 171.385 176.48ZM166.526 178.733C166.664 179.03 166.839 179.332 167.06 179.634C166.884 179.393 166.729 179.138 166.596 178.871C166.573 178.826 166.55 178.78 166.526 178.733Z" fill="white"/>
<path d="M149.516 144.616C151.456 146.126 150.895 150.092 148.263 153.473C145.631 156.855 141.925 158.372 139.984 156.862C138.044 155.352 138.605 151.386 141.237 148.005C143.869 144.623 147.576 143.106 149.516 144.616Z" fill="#C26649"/>
<path d="M145.689 180.547C153.224 182.886 156.488 193.946 152.979 205.249C149.469 216.553 140.515 223.819 132.98 221.479C125.444 219.14 122.181 208.08 125.69 196.777C129.2 185.473 138.153 178.207 145.689 180.547Z" fill="#FF896F"/>
<path fill-rule="evenodd" clip-rule="evenodd" d="M138.92 190.241C141.457 191.759 142.284 195.046 140.767 197.583C139.779 199.235 139.225 200.902 139.041 202.622C138.727 205.562 136.089 207.69 133.149 207.376C130.209 207.062 128.081 204.424 128.395 201.484C128.752 198.151 129.834 195.006 131.578 192.089C133.095 189.551 136.382 188.724 138.92 190.241Z" fill="white"/>
</g>
</g>
<defs>
<filter id="filter0_dd_0_2244" x="0.563232" y="0.64563" width="352.874" height="415.177" filterUnits="userSpaceOnUse" color-interpolation-filters="sRGB">
<feFlood flood-opacity="0" result="BackgroundImageFix"/>
<feColorMatrix in="SourceAlpha" type="matrix" values="0 0 0 0 0 0 0 0 0 0 0 0 0 0 0 0 0 0 127 0" result="hardAlpha"/>
<feOffset dx="7" dy="7"/>
<feGaussianBlur stdDeviation="6.5"/>
<feComposite in2="hardAlpha" operator="out"/>
<feColorMatrix type="matrix" values="0 0 0 0 0.921569 0 0 0 0 0.921569 0 0 0 0 0.921569 0 0 0 0.31 0"/>
<feBlend mode="normal" in2="BackgroundImageFix" result="effect1_dropShadow_0_2244"/>
<feColorMatrix in="SourceAlpha" type="matrix" values="0 0 0 0 0 0 0 0 0 0 0 0 0 0 0 0 0 0 127 0" result="hardAlpha"/>
<feOffset dx="-7" dy="-9"/>
<feGaussianBlur stdDeviation="7.5"/>
<feComposite in2="hardAlpha" operator="out"/>
<feColorMatrix type="matrix" values="0 0 0 0 0.921569 0 0 0 0 0.921569 0 0 0 0 0.921569 0 0 0 0.31 0"/>
<feBlend mode="normal" in2="effect1_dropShadow_0_2244" result="effect2_dropShadow_0_2244"/>
<feBlend mode="normal" in="SourceGraphic" in2="effect2_dropShadow_0_2244" result="shape"/>
</filter>
<filter id="filter1_d_0_2244" x="18.8469" y="20.9293" width="320.164" height="380.468" filterUnits="userSpaceOnUse" color-interpolation-filters="sRGB">
<feFlood flood-opacity="0" result="BackgroundImageFix"/>
<feColorMatrix in="SourceAlpha" type="matrix" values="0 0 0 0 0 0 0 0 0 0 0 0 0 0 0 0 0 0 127 0" result="hardAlpha"/>
<feOffset dx="0.929078" dy="0.929078"/>
<feGaussianBlur stdDeviation="2.3227"/>
<feColorMatrix type="matrix" values="0 0 0 0 0 0 0 0 0 0 0 0 0 0 0 0 0 0 0.25 0"/>
<feBlend mode="overlay" in2="BackgroundImageFix" result="effect1_dropShadow_0_2244"/>
<feBlend mode="normal" in="SourceGraphic" in2="effect1_dropShadow_0_2244" result="shape"/>
</filter>
<filter id="filter2_d_0_2244" x="100.28" y="115.025" width="176.418" height="202.283" filterUnits="userSpaceOnUse" color-interpolation-filters="sRGB">
<feFlood flood-opacity="0" result="BackgroundImageFix"/>
<feColorMatrix in="SourceAlpha" type="matrix" values="0 0 0 0 0 0 0 0 0 0 0 0 0 0 0 0 0 0 127 0" result="hardAlpha"/>
<feOffset dx="12.9194" dy="17.2258"/>
<feGaussianBlur stdDeviation="10.479"/>
<feComposite in2="hardAlpha" operator="out"/>
<feColorMatrix type="matrix" values="0 0 0 0 0.993115 0 0 0 0 0.743134 0 0 0 0 0.689567 0 0 0 1 0"/>
<feBlend mode="normal" in2="BackgroundImageFix" result="effect1_dropShadow_0_2244"/>
<feBlend mode="normal" in="SourceGraphic" in2="effect1_dropShadow_0_2244" result="shape"/>
</filter>
<clipPath id="clip0_0_2244">
<rect width="262" height="334.468" fill="white" transform="translate(22.5632 65.432) rotate(-8.95584)"/>
</clipPath>
</defs>
</svg>
